<svg width="50" height="10" viewBox="0 0 50 10" fill="none" xmlns="http://www.w3.org/2000/svg">
<mask id="mask0_121_229" style="mask-type:alpha" maskUnits="userSpaceOnUse" x="0" y="0" width="50" height="10">
<path d="M10.0203 4.54493C10.0203 2.03563 8.04668 0 5.47535 0C3.76677 0 2.28374 0.936053 1.50558 2.32886L3.72166 4.54493C3.72166 3.57505 4.5393 2.79124 5.47535 2.79124C6.46779 2.79124 7.22904 3.57505 7.22904 4.54493C7.22904 5.51482 6.46215 6.29862 5.47535 6.29862H5.46971H1.6973C0.761248 6.29862 0 7.05987 0 7.99593V9.08987H5.47535C8.02976 9.08987 10.0203 7.05423 10.0203 4.54493Z" fill="#0DBDFF"/>
<path d="M30.7263 4.00924H32.8465C33.6698 4.00924 34.0983 3.62016 34.0983 2.89274C34.0983 2.15405 33.6698 1.76497 32.8465 1.76497H30.7263V4.00924ZM31.9499 5.77985H30.7263V9.08987H28.826V1.02064C28.826 0.456749 29.2827 0 29.8523 0H32.9029C34.8708 0 36.0663 1.18416 36.0663 2.88147C36.0663 4.24607 35.2994 5.28363 33.9686 5.65015L36.337 9.08987H34.0589L31.9499 5.77985ZM50 8.8474C49.6278 9.08987 49.188 9.25904 48.7143 9.25904C47.4061 9.25904 46.7914 8.36245 46.7914 7.08807V0.473666L48.5902 0.045111V7.10498C48.5902 7.46023 48.765 7.68015 49.0808 7.68015C49.1767 7.68015 49.2838 7.65759 49.3853 7.61248L50 8.8474ZM46.8591 8.8474C46.4869 9.08987 46.0471 9.25904 45.5734 9.25904C44.2652 9.25904 43.6506 8.36245 43.6506 7.08807V1.22364L45.4494 0.778165V7.10498C45.4494 7.46023 45.6242 7.68015 45.94 7.68015C46.0358 7.68015 46.143 7.65759 46.2445 7.61248L46.8591 8.8474ZM41.2146 5.8024C41.2146 4.74793 40.5379 4.02052 39.5229 4.02052C38.5079 4.02052 37.8313 4.73666 37.8313 5.8024C37.8313 6.86815 38.5079 7.58429 39.5229 7.58429C40.5379 7.58429 41.2146 6.86815 41.2146 5.8024ZM35.993 5.8024C35.993 3.77805 37.476 2.36269 39.5229 2.36269C41.5698 2.36269 43.0641 3.76677 43.0641 5.8024C43.0641 7.84368 41.5642 9.25904 39.5229 9.25904C37.476 9.25904 35.993 7.84368 35.993 5.8024ZM15.2645 5.41896L16.5614 1.94541L17.8584 5.41896H15.2645ZM15.1968 0.642832L11.8699 9.08987H13.8886L14.5991 7.18393H18.5181L19.2286 9.08987H21.2473L17.6666 0H16.1498C15.7325 0 15.3547 0.253749 15.1968 0.642832ZM24.484 7.58429C23.4803 7.58429 22.7924 6.86815 22.7924 5.8024C22.7924 4.73666 23.4803 4.02052 24.484 4.02052C25.4878 4.02052 26.1757 4.73666 26.1757 5.8024C26.1757 6.89635 25.4708 7.58429 24.484 7.58429ZM26.0573 3.18033C25.6118 2.66155 24.9352 2.36269 24.1175 2.36269C22.3582 2.36269 20.9541 3.76677 20.9541 5.79113C20.9541 7.8324 22.3582 9.25904 24.0668 9.25904C24.9803 9.25904 25.6964 8.85868 26.1531 8.19329L26.2321 9.08987H27.8448V0H27.0836C26.5197 0 26.0573 0.456749 26.0573 1.02064V3.18033Z" fill="#333333"/>
</mask>
<g mask="url(#mask0_121_229)">
<circle cx="30.9863" cy="5" r="39.8767" fill="white"/>
</g>
</svg>
