<svg width="41" height="50" viewBox="0 0 41 50" fill="none" xmlns="http://www.w3.org/2000/svg">
<mask id="mask0_399_115" style="mask-type:alpha" maskUnits="userSpaceOnUse" x="0" y="15" width="41" height="35">
<g clip-path="url(#clip0_399_115)">
<path d="M35.6461 45.6258L38.9141 15.7847H2.5625L2.60521 16.1719L5.82542 45.63L5.85275 45.8751L20.6008 49.2154H20.8331L35.6153 45.8724L35.6427 45.6272L35.6461 45.6258ZM20.7699 22.3023H31.3325L31.0148 25.311L20.594 29.0887L20.7682 29.7685H30.5467L29.4209 40.2866L20.7323 42.2507L12.0472 40.2894L11.5005 35.2525H15.076L15.363 37.8058L15.3904 38.0537L20.6606 39.196H20.8878L26.0999 38.0147L26.1255 37.7682L26.6175 33.0517L26.6568 32.6672H11.2015L10.877 29.6403L21.6548 25.878L21.484 25.1954H10.414L10.098 22.2981H20.758L20.7699 22.3023Z" fill="black"/>
</g>
</mask>
<g mask="url(#mask0_399_115)">
<circle cx="20.8154" cy="29.0307" r="25.8615" fill="white"/>
</g>
<path d="M16.4925 5.43466H14.3619C14.3335 5.21591 14.2752 5.01847 14.1871 4.84233C14.0991 4.66619 13.9826 4.51562 13.8377 4.39062C13.6928 4.26562 13.521 4.17045 13.3221 4.10511C13.1261 4.03693 12.9087 4.00284 12.6701 4.00284C12.2468 4.00284 11.8817 4.10653 11.5749 4.31392C11.271 4.52131 11.0366 4.82102 10.8718 5.21307C10.7099 5.60511 10.6289 6.07955 10.6289 6.63636C10.6289 7.21591 10.7113 7.7017 10.8761 8.09375C11.0437 8.48295 11.2781 8.77699 11.5792 8.97585C11.8832 9.17187 12.2425 9.26989 12.6573 9.26989C12.8903 9.26989 13.1019 9.24006 13.2923 9.1804C13.4854 9.12074 13.6545 9.03409 13.7994 8.92045C13.9471 8.80398 14.0678 8.66335 14.1616 8.49858C14.2582 8.33097 14.3249 8.14205 14.3619 7.93182L16.4925 7.9446C16.4556 8.33097 16.3434 8.71165 16.1559 9.08665C15.9712 9.46165 15.717 9.80398 15.3931 10.1136C15.0692 10.4205 14.6744 10.6648 14.2085 10.8466C13.7454 11.0284 13.2141 11.1193 12.6147 11.1193C11.8249 11.1193 11.1175 10.946 10.4925 10.5994C9.87038 10.25 9.37891 9.74148 9.01811 9.07386C8.65732 8.40625 8.47692 7.59375 8.47692 6.63636C8.47692 5.67614 8.66016 4.86222 9.02663 4.1946C9.39311 3.52699 9.88885 3.01989 10.5138 2.6733C11.1388 2.3267 11.8391 2.15341 12.6147 2.15341C13.1431 2.15341 13.6317 2.22727 14.0806 2.375C14.5295 2.51989 14.9244 2.73295 15.2653 3.0142C15.6062 3.29261 15.8832 3.63494 16.0962 4.04119C16.3093 4.44744 16.4414 4.91193 16.4925 5.43466ZM25.6214 5.43466H23.4908C23.4624 5.21591 23.4041 5.01847 23.3161 4.84233C23.228 4.66619 23.1115 4.51562 22.9666 4.39062C22.8217 4.26562 22.6499 4.17045 22.451 4.10511C22.255 4.03693 22.0376 4.00284 21.799 4.00284C21.3757 4.00284 21.0107 4.10653 20.7038 4.31392C20.3999 4.52131 20.1655 4.82102 20.0007 5.21307C19.8388 5.60511 19.7578 6.07955 19.7578 6.63636C19.7578 7.21591 19.8402 7.7017 20.005 8.09375C20.1726 8.48295 20.407 8.77699 20.7081 8.97585C21.0121 9.17187 21.3714 9.26989 21.7862 9.26989C22.0192 9.26989 22.2308 9.24006 22.4212 9.1804C22.6143 9.12074 22.7834 9.03409 22.9283 8.92045C23.076 8.80398 23.1967 8.66335 23.2905 8.49858C23.3871 8.33097 23.4538 8.14205 23.4908 7.93182L25.6214 7.9446C25.5845 8.33097 25.4723 8.71165 25.2848 9.08665C25.1001 9.46165 24.8459 9.80398 24.522 10.1136C24.1982 10.4205 23.8033 10.6648 23.3374 10.8466C22.8743 11.0284 22.343 11.1193 21.7436 11.1193C20.9538 11.1193 20.2464 10.946 19.6214 10.5994C18.9993 10.25 18.5078 9.74148 18.147 9.07386C17.7862 8.40625 17.6058 7.59375 17.6058 6.63636C17.6058 5.67614 17.7891 4.86222 18.1555 4.1946C18.522 3.52699 19.0178 3.01989 19.6428 2.6733C20.2678 2.3267 20.968 2.15341 21.7436 2.15341C22.272 2.15341 22.7607 2.22727 23.2095 2.375C23.6584 2.51989 24.0533 2.73295 24.3942 3.0142C24.7351 3.29261 25.0121 3.63494 25.2251 4.04119C25.4382 4.44744 25.5703 4.91193 25.6214 5.43466ZM31.5458 4.8892C31.5174 4.5767 31.391 4.33381 31.1665 4.16051C30.945 3.98438 30.6282 3.89631 30.2163 3.89631C29.9435 3.89631 29.7163 3.93182 29.5344 4.00284C29.3526 4.07386 29.2163 4.17188 29.1254 4.29688C29.0344 4.41903 28.9876 4.55966 28.9847 4.71875C28.979 4.84943 29.0046 4.96449 29.0614 5.06392C29.1211 5.16335 29.2063 5.25142 29.3171 5.32812C29.4308 5.40199 29.5671 5.46733 29.7262 5.52415C29.8853 5.58097 30.0643 5.63068 30.2631 5.6733L31.0131 5.84375C31.445 5.9375 31.8256 6.0625 32.1552 6.21875C32.4876 6.375 32.766 6.56108 32.9904 6.77699C33.2177 6.9929 33.3896 7.24148 33.506 7.52273C33.6225 7.80398 33.6822 8.11932 33.685 8.46875C33.6822 9.01989 33.543 9.4929 33.2674 9.88778C32.9918 10.2827 32.5955 10.5852 32.0785 10.7955C31.5643 11.0057 30.9435 11.1108 30.2163 11.1108C29.4862 11.1108 28.8498 11.0014 28.3072 10.7827C27.7646 10.5639 27.3427 10.2315 27.0415 9.78551C26.7404 9.33949 26.5856 8.77557 26.5771 8.09375H28.5969C28.614 8.375 28.6893 8.60938 28.8228 8.79688C28.9563 8.98438 29.1396 9.12642 29.3725 9.22301C29.6083 9.3196 29.881 9.3679 30.1907 9.3679C30.4748 9.3679 30.7163 9.32955 30.9151 9.25284C31.1168 9.17614 31.2717 9.0696 31.3796 8.93324C31.4876 8.79687 31.543 8.64062 31.5458 8.46449C31.543 8.29972 31.4918 8.15909 31.3924 8.04261C31.293 7.9233 31.1396 7.82102 30.9322 7.7358C30.7276 7.64773 30.4663 7.56676 30.1481 7.4929L29.2362 7.27983C28.4805 7.10653 27.8853 6.8267 27.4506 6.44034C27.016 6.05114 26.8001 5.52557 26.8029 4.86364C26.8001 4.32386 26.945 3.85085 27.2376 3.4446C27.5302 3.03835 27.935 2.72159 28.4521 2.49432C28.9691 2.26705 29.5586 2.15341 30.2205 2.15341C30.8967 2.15341 31.4833 2.26847 31.9805 2.49858C32.4805 2.72585 32.8683 3.04545 33.1438 3.45739C33.4194 3.86932 33.56 4.34659 33.5657 4.8892H31.5458Z" fill="white"/>
<defs>
<clipPath id="clip0_399_115">
<rect width="41" height="33.4308" fill="white" transform="translate(0 15.7847)"/>
</clipPath>
</defs>
</svg>
