<svg width="54" height="44" viewBox="0 0 54 44" fill="none" xmlns="http://www.w3.org/2000/svg">
<path d="M43.7371 21.3091C43.5833 11.9302 37.4646 3.96045 29.0017 0.971191C30.1083 0.781974 31.239 0.690918 32.4109 0.690918C44.0541 0.691086 53.4995 10.1172 53.4998 21.7661C53.4998 33.3511 44.0864 42.7776 32.4431 42.7778C30.6586 42.7778 28.9014 42.5278 27.2029 42.0884L27.199 42.0874C18.3652 39.8681 11.7515 32.0357 11.3972 22.5942L11.3855 22.1431V21.3345C11.5693 15.8325 16.0716 11.4302 21.6482 11.4302C23.2252 11.4302 24.7109 11.7792 26.0349 12.4175C23.1117 14.4825 21.1482 17.8184 21.1482 21.7349C21.1483 25.8267 23.2628 29.3567 26.4822 31.3423L26.7966 31.5298C28.4189 32.5053 30.3691 33.0386 32.4109 33.0386C38.4608 33.0384 43.5017 28.2106 43.7371 22.1704V21.3091Z" stroke="white"/>
<path d="M21.6155 0.691162C23.3999 0.691162 25.1572 0.941214 26.8557 1.38062L26.8596 1.38159C35.8337 3.63616 42.5162 11.6836 42.6731 21.3259C42.6731 21.3893 42.673 21.4441 42.6702 21.4929C42.6687 21.5173 42.667 21.5349 42.6653 21.5466C42.6634 21.5596 42.663 21.5574 42.6672 21.5447L42.6409 21.6208V22.1023C42.4571 27.6042 37.9548 32.0066 32.3782 32.0066C30.8157 32.0065 29.3095 31.6191 27.9504 31.0017C30.8604 28.9355 32.8146 25.6086 32.8147 21.7029C32.8147 17.4855 30.5995 13.8614 27.2063 11.9128H27.2073C25.5833 10.9338 23.6298 10.3992 21.5842 10.3992C15.5304 10.3992 10.5568 15.2299 10.3215 21.2664V22.1277C10.4751 31.5645 16.5914 39.4798 24.9983 42.4636C23.89 42.6535 22.758 42.7458 21.5842 42.7458C9.97204 42.7458 0.526839 33.3511 0.526611 21.7351C0.526611 10.1186 9.97172 0.691412 21.6155 0.691162Z" stroke="white"/>
</svg>
