<svg width="41" height="31" viewBox="0 0 41 31" fill="none" xmlns="http://www.w3.org/2000/svg">
<g clip-path="url(#clip0_121_205)">
<path d="M3.56567 30.5211C4.74046 30.5211 6.50264 28.2859 8.55851 27.9666C9.7333 27.9666 10.6144 30.2017 13.5513 30.5211C15.6072 30.5211 16.4883 28.2859 18.5442 28.2859C20.6001 28.2859 21.4811 30.5211 23.537 30.5211C25.5929 30.5211 26.474 28.2859 28.5299 28.2859C30.5857 28.2859 31.4668 30.5211 33.5227 30.5211C35.5786 30.5211 36.4597 28.2859 38.5155 28.2859C40.5714 28.2859 41.4525 30.5211 43.5084 30.5211" stroke="white" stroke-linecap="round" stroke-linejoin="round"/>
<path d="M7.58341 28.2967L6.23828 25.9657L40.8944 23.9434C38.1689 26.1892 34.6681 28.0093 31.1261 29.4994" stroke="white" stroke-linecap="round" stroke-linejoin="round"/>
<path d="M20.0361 4.2522C25.9336 5.88602 34.1805 13.7784 36.9883 22.2615C35.4493 21.7133 34.298 21.1545 32.1364 21.6548C30.0453 14.7629 26.3036 8.17975 20.0361 4.2522Z" stroke="white" stroke-linecap="round" stroke-linejoin="round"/>
<path d="M9.06944 0.479004C16.6233 3.40604 26.9849 11.5539 28.8881 22.4052C20.177 19.2227 13.5454 20.9204 8.92847 23.5015C15.9713 15.3909 12.8111 6.1681 9.06944 0.479004Z" stroke="white" stroke-linecap="round" stroke-linejoin="round"/>
</g>
<defs>
<clipPath id="clip0_121_205">
<rect width="41" height="31" fill="white"/>
</clipPath>
</defs>
</svg>
